<svg xmlns="http://www.w3.org/2000/svg" version="1.1" xmlns:xlink="http://www.w3.org/1999/xlink" width="512" height="512"><svg id="SvgjsSvg1130" data-name="レイヤー 1" xmlns="http://www.w3.org/2000/svg" viewBox="0 0 512 512">
  <defs>
    <style>
      .cls-1, .cls-2 {
        fill: #1f3c90;
      }

      .cls-2 {
        stroke-width: 14.52px;
      }

      .cls-2, .cls-3 {
        stroke: #1f3c90;
        stroke-miterlimit: 10;
      }

      .cls-4 {
        fill: #fff;
      }

      .cls-3 {
        fill: none;
        stroke-width: 20px;
      }
    </style>
  </defs>
  <g>
    <path class="cls-4" d="M312.09,116.92c9.66,12.72,7.16,31.02-5.57,40.67l-141.31,107.16c-12.73,9.65-31.05,7.14-40.71-5.57l-43.93-57.8c-9.66-12.72-7.16-31.02,5.57-40.67L227.45,53.55c12.73-9.65,31.05-7.14,40.71,5.57l43.93,57.8Z"></path>
    <path class="cls-3" d="M312.09,116.92c9.66,12.72,7.16,31.02-5.57,40.67l-141.31,107.16c-12.73,9.65-31.05,7.14-40.71-5.57l-43.93-57.8c-9.66-12.72-7.16-31.02,5.57-40.67L227.45,53.55c12.73-9.65,31.05-7.14,40.71,5.57l43.93,57.8Z"></path>
  </g>
  <g>
    <path class="cls-4" d="M383.14,154.79c6.25,15.94-1.69,34.07-17.63,40.3l-193.86,75.74c-15.94,6.23-34.1-1.71-40.34-17.65l-24.98-63.72c-6.25-15.94,1.69-34.07,17.63-40.3l193.86-75.74c15.94-6.23,34.1,1.71,40.34,17.65l24.98,63.72Z"></path>
    <path class="cls-3" d="M383.14,154.79c6.25,15.94-1.69,34.07-17.63,40.3l-193.86,75.74c-15.94,6.23-34.1-1.71-40.34-17.65l-24.98-63.72c-6.25-15.94,1.69-34.07,17.63-40.3l193.86-75.74c15.94-6.23,34.1,1.71,40.34,17.65l24.98,63.72Z"></path>
  </g>
  <rect class="cls-1" x="54" y="137.46" width="365.91" height="301.29" rx="29.04" ry="29.04"></rect>
  <g>
    <rect class="cls-4" x="309.55" y="235.84" width="169.89" height="104.54" rx="27.98" ry="27.98"></rect>
    <rect class="cls-3" x="309.55" y="235.84" width="169.89" height="104.54" rx="27.98" ry="27.98"></rect>
  </g>
  <circle class="cls-2" cx="374.89" cy="288.11" r="13.07"></circle>
</svg><style>@media (prefers-color-scheme: light) { :root { filter: none; } }
@media (prefers-color-scheme: dark) { :root { filter: none; } }
</style></svg>